<svg xmlns="http://www.w3.org/2000/svg" viewBox="0 0 399.62 227.11"><defs><style>.cls-1{fill:#1d1d1b;}</style></defs><title>schwarz_weiß</title><g id="Ebene_1" data-name="Ebene 1"><path d="M285.16,101.53c-1.1.39-2.18.82-3.29,1.16-5.17,1.6-10.41,3-15.5,4.79-8.88,3.19-17.65,6.67-26.49,10-5.27,2-10.68,3.62-15.81,5.89-5.28,2.33-10.32,5.19-15.41,7.92-4.43,2.38-8.85,4.77-13.14,7.39-6.42,3.91-12.54,8.36-19.16,11.86-2.63,1.39-3.46,2.82-4.16,5.39a4.78,4.78,0,0,1-5.25,3.83c-3.09-.34-4.63,2.19-6.88,3.47-3.44,1.94-1.39,4-.5,6.11a15,15,0,0,0,2.17,4.07c.54.59,1.94.55,2.95.54,4.29,0,8.59,0,12.87-.22,5.09-.27,10.17-.7,15.24-1.2s9.91-.95,14.81-1.77c7.59-1.27,15.13-2.91,22.72-4.25,6.55-1.15,13.15-2,19.7-3.16,3.52-.62,7-1.53,10.48-2.3s6.91-1.28,10.24-2.31c5.38-1.68,10.64-3.73,16-5.52a11,11,0,0,1,4.56-.88c2.27.25.33,1.85.12,2.18-3.63,5.68-7.25,11.36-11.19,16.82-4.1,5.7-8.48,11.19-12.86,16.68-1.77,2.21-3.94,4.09-5.78,6.24s-1.7,2-4.11.43a8.14,8.14,0,0,0-4.06-.76c-6.31-.08-12,2.2-17.79,4.49-.72.29-1.79-.31-2.7-.49l1.43-1.06c-.52.09-1.06.16-1.57.3-.05,0,0,.43,0,.67-3,2.59-3.19-1.57-4.95-2.06-2.13-.58-4.13-2.33-6.18-2.32a44,44,0,0,0-18.54,3.92,19.32,19.32,0,0,1-3.75,1,.49.49,0,0,1-.43-.14c-2.15-4.05-6-3.23-9.33-2.87A126.6,126.6,0,0,0,176,197.9a43.28,43.28,0,0,0-5.33,1.88c-.33.12-.66.25-1,.35a4.54,4.54,0,0,1-1.63.43A17.93,17.93,0,0,1,166,200c-1.16-.25-2.57-.18-2-2.07a3.29,3.29,0,0,1-.56-.15c-.85-.42-1.69-.84-2.51-1.3s-1.83-1.52-2.78-1.56a47,47,0,0,0-8.64.32c-4,.58-8,1.51-12,2.41-1.6.36-3.11,1.15-4.71,1.51-1,.21-2.06-.23-3,0-2.78.54-2.1-1.2-2.83-2.9-1.18-2.78-4.47-3.94-7.62-3-3.61,1-7,3.17-10.63,3.63-2.6.33-5,4-7.86,1-1.81-1.91-3.52-3.93-5.14-6q-5-6.41-9.78-13a14.92,14.92,0,0,1-2.48-4.58c-.13-.45,1.67-2,2.69-2.12,4.23-.49,8.5-.69,12.77-.88,2.21-.1,4.43.06,6.64.05.21,0,.56-.38.61-.62.79-4.59,1.75-9.16,2.26-13.78.59-5.33,4.3-9,6.45-13.56a37.59,37.59,0,0,1,11.44-13.79c1.46-1.12,3.41-1.61,5.13-2.39.09,0,.12-.2.19-.29a5.86,5.86,0,0,1,1.05-1.16,5.2,5.2,0,0,1,1.4-.43,5.16,5.16,0,0,0-.8-1.59,28.79,28.79,0,0,0-3.22-2.49c-.37-.26-1-.12-1.4-.36-2.8-1.64-2.72-4.38-2.51-7.07.49-6.47,4-10.4,10.59-11,2.44-.24,5,.71,7.5,1.24.32.07.36,1,.73,1.26,1.11.72,2.27,1.72,3.49,1.82,2.35.21,3.25,1,2.95,3.44a9.56,9.56,0,0,0,.74,4.21c.82,2.18-.15,3.7-1.7,4.8-3.74,2.65-5.34,6.62-6.31,10.71-.73,3.07-.35,6.4-.53,9.61-.11,2,.07,4.14-.61,5.93-1.08,2.86,1.11,3.81,2.42,5.28,1.93,2.18,4.39,1.43,6.81,1.09.72-.1,1.57.84,2.33.79A34.55,34.55,0,0,0,162,152c2-.59,3.74-2.17,5.73-3,.92-.36,2.17.24,3.27.2a5.32,5.32,0,0,0,2.61-.61c5.3-3.39,10.51-6.92,15.79-10.33,3.12-2,6.29-3.95,9.52-5.78,2.1-1.18,4.34-2.11,6.53-3.15,7-3.32,13.88-6.89,21-9.88,8.1-3.38,16.35-6.45,24.66-9.25,6.63-2.24,13.46-3.88,20.21-5.76,2.65-.73,5.3-1.48,8-2.06,1.93-.42,3.91-.58,5.87-.85Zm-47.32,93.9c-1.06.18-2.12.35-3.17.56-.07,0-.09.3-.13.46a24.23,24.23,0,0,0,2.58-.28c.27,0,.46-.49.7-.75a2.47,2.47,0,0,0,.89-.18,3,3,0,0,0,.61-.81l-1.38.95ZM140.48,178.6l1.58-.24a2.79,2.79,0,0,0-.93-.52c-1.68-.19-3.36-.42-5-.46-5.83-.1-11.67-.14-17.51-.19-4.52,0-9,0-13.55-.1-2.24-.06-4.47-.52-6.71-.75-3.2-.32-6.4-.61-9.6-.89a7.38,7.38,0,0,0-1.24.08,10.39,10.39,0,0,0,.77,1.07c.33.36.82.58,1.07,1A50.28,50.28,0,0,0,92,181.84c2.31,2.9,4.81,5.65,7.18,8.51,1.42,1.71,2.74,3.51,4.12,5.25.15.18.48.41.63.35,1.75-.68,3.48-1.41,5.2-2.15.08,0,0-.3.11-.38a3.78,3.78,0,0,1,1.21-1c.79-.26,1.72-.16,2.48-.48a15.47,15.47,0,0,0,2.21-1.55s.24.21.35.34a3.1,3.1,0,0,1,.21.36c0-.13.11-.25.15-.38s.08-.31.12-.47c.11.15.18.35.32.44s.48.24.63.17c.55-.26,1-.84,1.6-.87,1.88-.12,3.78,0,5.66-.07,5.26-.07,6.92,1.41,7,6.24,0,.19.54.58.69.52,1.86-.71,3.69-1.47,5.52-2.24,3-1.27,5.93-2.91,9.06-3.72a66.08,66.08,0,0,1,12.12-1.91c2.16-.15,5.12-1.46,6.35,1.87a26.22,26.22,0,0,1,.91,4.17c.15.83.2,1.68.3,2.52a6.58,6.58,0,0,0,1.19-.21c5.44-2.14,10.78-4.56,16.34-6.32a29.18,29.18,0,0,1,9.52-.94c1.57,0,4.17,1.07,4.47,2.16,1.07,3.84,2.92,2.2,4.86,1.23a3.15,3.15,0,0,1,.65-.29c2.32-.61,4.66-1.16,7-1.81,1.61-.46,3.19-1.51,4.76-1.46a57.26,57.26,0,0,1,9.28,1.3c1.12.22,2.07,1.18,3.15,1.7.91.45,1.92.7,2.85,1.11s1.88,1.45,2.65,1.3c1.63-.31,3.1-1.51,4.73-1.8,4.64-.84,9.31-1.58,14-2,2-.17,4.11.66,6.18,1,.46.07,1.16.09,1.4-.18,2.65-3,5.28-6,7.82-9,3.25-3.89,6.54-7.76,9.58-11.81,3.57-4.77,6.91-9.71,10.34-14.59a2,2,0,0,0,.18-.5,1.32,1.32,0,0,0-.56,0c-2.93,1.13-5.82,2.35-8.77,3.39-3.57,1.26-7.19,2.39-10.81,3.52-1.43.45-3,.64-4.36,1.17-1.95.73-3.76,1.91-5.75,2.48a84.34,84.34,0,0,1-9.7,2.15c-4.46.72-9,1.2-13.44,1.76-3.83.48-7.68.86-11.5,1.4-2.21.31-4.38,1-6.59,1.25-3.9.37-7.83.45-11.74.75-.56,0-1.07.91-1.63.94-1.17.06-2.39-.37-3.55-.24s-2.11,1-3.21,1.08c-6,.61-12,1.12-18,1.62-5,.42-10,.85-15,1.15q-13.33.81-26.68,1.45c-3,.14-5.93,0-8.89,0a4.4,4.4,0,0,1-1-.22c.37-.19.73-.54,1.11-.56C131.42,179,135.82,178.83,140.48,178.6Zm-2.41-73.92c-4.29.08-7,1.69-9.12,5.46-2.58,4.52-.89,9.06,4,9.83,1.65.26,3.53-.81,5.28-1.34a5,5,0,0,0,1.17-.77c.18.58.7,1.51.51,1.69-2,1.89-1.5,4.76-3,7-1.67,2.5-4,3.54-6.09,5.14-4,3-8.38,5.71-11.56,9.44-4.46,5.22-6.78,11.66-7.5,18.65-.32,3.18-1.51,6.26-2.11,9.43-.17.85.25,2.59.63,2.66q6,1.11,12.08,1.72c1.46.15,3.36.23,4.4-.54,2.23-1.67,3.82-4.19,6-5.86,3.71-2.78,4.59-5.61,2.28-9.12-1.26-1.91-2.41-3.89-3.68-5.79-2.39-3.58-3.68-7.51-3-11.74.26-1.57,1.65-3,2.74-4.34a5.59,5.59,0,0,1,2.45-1.44c.38-.13,1,.36,1.48.57a3.39,3.39,0,0,1-.71.52,5.41,5.41,0,0,0-3.6,4.61,12.93,12.93,0,0,0,.88,6.4,140.28,140.28,0,0,0,6.94,12.36c.51.84,1.91,2,2.42,1.83,2.75-1.09,5.27-2.8,8.05-3.82,1.51-.56,3.36-.26,5.05-.14.29,0,.56,1,.77,1.59s.41,1.31.61,2l1.9-.92c2.13-1.06,4-3.89,6.69-.85.16-.17.44-.32.45-.5.11-1.08,0-2.39,1.74-1.4.06,0,.24-.1.33-.19.22-.25.42-.53.64-.78a10.89,10.89,0,0,0,1-1.16c.35-.57.54-1.24.93-1.77.09-.13.68.1,1,.16-.36-.46-.73-1.33-1.07-1.32a17,17,0,0,0-5.17.69c-1.45.55-2.5,2.37-3.94,2.67-2.77.6-5.45,1.91-8.56.87-2.71-.91-6.23,2.78-8.5-2.14-2-4.28-5.19-8-7.77-12-.31-.47-.08-1.28-.1-1.94a12.89,12.89,0,0,1,2.38,1c.41.27.53,1,.82,1.42a.56.56,0,0,0,.44,0,72.18,72.18,0,0,0,2.53-7.88c.55-2.6-.07-5.59,1-7.9,1.39-3.1,3.9-5.7,5.88-8.55a5.47,5.47,0,0,0,1.2-2.47,33.53,33.53,0,0,0-.42-5.19c0-.24-.42-.48-.7-.62-1.39-.73-3.28-1.07-4.09-2.2A6.53,6.53,0,0,0,138.07,104.68ZM152.86,163c.45-2-2.46-3.38-4.77-2.43a35.3,35.3,0,0,0-5.34,3.1c-4.52,2.93-9,5.9-13.52,8.87-.18.12-.27.36-.4.54a2.06,2.06,0,0,0,.63.12,63.49,63.49,0,0,1,8-.62c3.06.14,6.09.87,9.14,1.27a24.8,24.8,0,0,0,4.7.3c.45,0,.77-1.1,1.27-1.57a12.84,12.84,0,0,1,1.83-1.34c.11-.08.31,0,.48,0a9.9,9.9,0,0,1-.6,1.63c-.12.23-.54.29-.82.42a15.48,15.48,0,0,0,2.08.62c.17,0,.63-.51.6-.74a18.84,18.84,0,0,0-.7-3.68C154.66,167.27,153.72,165.14,152.86,163ZM151,177.33v-.16a5.45,5.45,0,0,0-1.07,0,13.81,13.81,0,0,0-1.38.44,7,7,0,0,0,1.54.37c.94,0,1.88-.08,2.82-.14,4.53-.27,9.06-.53,13.59-.85a4.61,4.61,0,0,0,1.41-.66,7.55,7.55,0,0,0-1.55-.19C161.25,176.52,156.14,176.93,151,177.33Zm43.45,15.18,1.11-.46a8.58,8.58,0,0,0-1.4-.75,3.41,3.41,0,0,0-1.28-.09c-.88,0-1.75.13-2.62.2.8.26,1.6.55,2.42.78A17.44,17.44,0,0,0,194.47,192.51ZM176,197.28c.36-.44.72-.83,1-1.27,0,0-.4-.51-.46-.48-.59.31-1.15.67-1.71,1Zm-20.87-5.42-.62.46s.08.18.13.18c1,.1,2.06.24,3.1.26a8.24,8.24,0,0,0,1.68-.3c-.56-.12-1.12-.29-1.69-.37C157,192,156.18,192,155.15,191.86Zm5.6-2.08-.87.32c1,.27,2,.55,2.93.79.12,0,.28-.15.42-.24Zm11,7.77.25,1c.22-.29.6-.58.61-.88s-.44-.48-.68-.72Zm-14.64-43.5.44,1.07c.15-.14.44-.31.42-.42a7,7,0,0,0-.39-1.14Zm5.64,39.22-.35.38a2,2,0,0,0,.67.46c.19,0,.42-.18.63-.29Zm-14.79.47-1,.48c.13.07.27.22.37.19.58-.16,1.14-.36,1.71-.55Zm37.24-19.41a5.46,5.46,0,0,0-.69.2l-1,.67c.14.1.38.33.41.3C184.25,175.21,184.59,174.89,185.2,174.33Zm-2.48,21.13.83-.57-.74-.62a5.69,5.69,0,0,0-.25.69C182.54,195.08,182.64,195.23,182.72,195.46Zm59.18-1.34-.31-.56-.79.67c.17.12.36.36.5.34S241.67,194.3,241.9,194.12Z"/><path d="M297.27,98.09a32.16,32.16,0,0,0,3.5.14c.4,0,.74-.64,1.18-.87.15-.09.5.18.76.29-.15.15-.27.41-.43.44-2.94.6-5.89,1.17-8.84,1.74-.13,0-.29-.07-.44-.11.08-.15.14-.38.26-.42C294.42,98.93,295.59,98.59,297.27,98.09Z"/><path d="M307.84,97.52l-1-.14,1-.32.48-.13c-.15,0-.3,0-.45-.08a2.43,2.43,0,0,1-.28-.14l.31-.15s.08-.06.11,0c.71.12,1.41.23,2.11.37.06,0,.1.17.14.26Z"/><path d="M304.18,98.16l-.63-.46c.22-.27.45-.77.68-.77a7,7,0,0,1,1.64.35Z"/><path d="M285.18,101.56l3-1.11c0,.16,0,.45,0,.46-1,.23-2,.42-2.94.62Z"/><path d="M313.92,97.15l-.7-.43c.63-.25,1.26-.51,1.9-.73.08,0,.22.13.33.2Z"/><path d="M293.05,100.82c-.2-.53-.4-.87-.34-.93a15.67,15.67,0,0,1,1.28-1c.08.12.26.31.23.35C294,99.64,293.66,100,293.05,100.82Z"/><path d="M292.1,100.58c-.2.08-.43.26-.59.21s-.31-.32-.46-.49c.16-.13.43-.41.48-.37A3.17,3.17,0,0,1,292.1,100.58Z"/><path d="M290.06,101l-.51-.39c.15-.12.32-.35.47-.34s.39.22.58.35Z"/><path d="M236.44,57.57c-3.2-.43-6.6-.63-9.87-1.38-4.07-.93-5-.33-4.26,3.82a25.25,25.25,0,0,0,1,3.25c.68,2.2,1.36,4.39,2,6.59a.54.54,0,0,1-.06.39c-.83.13-2.1.63-2.41.28a21.22,21.22,0,0,1-3.22-4.65c-.83-1.68-1.11-3.63-1.9-5.34-.42-.9-1.43-1.54-2.17-2.29a11.3,11.3,0,0,0-2,2.06c-2.16,3.89-4.21,7.85-6.32,11.77a1.18,1.18,0,0,1-.79.51c-.81,0-1.63,0-2.45-.07a16.34,16.34,0,0,1,.38-2.63c.87-2.76,1.82-5.51,2.78-8.24.51-1.44,1.26-2.8,1.63-4.26a8.48,8.48,0,0,0-.07-3.09,3.49,3.49,0,0,0-1.57-.08c-2.95.59-5.87,1.36-8.84,1.79-.85.12-1.83-.71-2.74-1.1a16.89,16.89,0,0,1,2.61-2.13A18.66,18.66,0,0,1,201,52c.22-.08.27-.59.46-.87,0,0,.34.11.53.15s.33.12.4.06c.87-.79,1.73-1.59,2.59-2.39s2-1.36,2-2a27.48,27.48,0,0,0-1.09-6.42c-.61-2.11-1.69-4.07-2.36-6.17a2.36,2.36,0,0,1,.62-2c.26-.25,1.44,0,1.86.46,3.2,3.11,6.31,6.32,9.49,9.46a2.66,2.66,0,0,0,1.4.57A7.52,7.52,0,0,0,218,40.42c.65-3.47,1.11-7,1.81-10.42.16-.79,1-1.44,1.55-2.16.61,1,1.73,2.06,1.75,3.11.08,3.47-.24,7-.4,10.44a2.44,2.44,0,0,0,.07.46c.94-.24,1.81,1.13,2.94-.21.79-.94,2.39-1.16,3.57-1.81.82-.44,1.49-1.18,2.33-1.58a42.67,42.67,0,0,1,4.74-1.85c.25-.09.87.34,1,.67a1.41,1.41,0,0,1-.1,1.28c-3.37,2.82-6.81,5.56-10.2,8.35-.78.64-1.47,1.39-2.2,2.09.94.87,1.74,2.06,2.85,2.56,2.79,1.25,5.72,2.18,8.58,3.28.61.23,1.39.45,1.7.94C239,57.07,238.58,57.52,236.44,57.57Zm-15.42-8a18.12,18.12,0,0,1,2.55-2,4.58,4.58,0,0,1,1.67-.1,4,4,0,0,1-.15-1.11,3,3,0,0,1,.47-1.23,13.75,13.75,0,0,1,1.17-1.36c-.09-.06-.21-.2-.27-.18-.59.24-1.16.49-1.74.76-.07,0-.1.12-.16.17-1.7,1.52-2.88-.25-4.27-.68a.58.58,0,0,1-.29-.43c0-1.2.13-2.4.14-3.59a2.88,2.88,0,0,0-.29-.95c-.08.07-.22.13-.24.2-.31,1.88-1,3.79-.83,5.62.18,2.07-1.22,1.77-1.9,1.38a17.51,17.51,0,0,1-3.32-2.91c-1.63-1.57-3.22-3.19-4.86-4.76-.12-.12-.46,0-.7,0a22.57,22.57,0,0,0,.13,4.59c.35,1.49,1.32,2.82,1.85,4.29a1.61,1.61,0,0,1-.56,1.46c-1.87,1-3.82,1.84-5.74,2.75a2.59,2.59,0,0,0-.44.32c.1.1.2.28.31.28,1.64,0,3.28,0,4.92,0a15.59,15.59,0,0,1,2.64-.07c.19,0,.47,1.09.32,1.55-1.13,3.71-2.35,7.39-3.53,11.07a1.88,1.88,0,0,0,0,.58,2.74,2.74,0,0,0,.5-.38c.74-.93,1.52-1.83,2.19-2.81,1-1.38,1.71-2.91,2.79-4.19.73-.87,2.48-2.18,2.71-2a28.55,28.55,0,0,1,3.49,3.92c.15.17.29.34.43.52.08-.1.22-.21.21-.29a31.37,31.37,0,0,1-.79-4c0-.64.59-1.92.83-1.9,2.69.24,5.36.68,8,1.06a4.17,4.17,0,0,0,.79,0c-.07-.24-.06-.58-.22-.69q-1.77-1.23-3.6-2.37C224.1,51.29,222.91,50.63,221,49.53Z"/><path d="M269.14,9.3c-1.15.85-2.25,1.77-3.46,2.51-1.49.92-3.07,1.71-4.62,2.51-3,1.54-6,3-8.92,4.58-2,1.13-4,2.43-5.93,3.72-4.25,2.82-8.5,5.65-12.7,8.54-1.67,1.14-3.21,2.47-4.85,3.66a3.71,3.71,0,0,1-1.3.33c.08-.57,0-1.42.29-1.67,3.36-2.57,6.79-5.06,10.23-7.53,2.38-1.71,4.71-3.49,7.22-5,3.69-2.19,7.53-4.12,11.27-6.22,3.42-1.92,6.75-4,10.18-5.86,2-1.1,4.18-1.92,6.23-3,1.72-.88,3.3-2,5.05-2.82C280.49,1.94,283.24,1,286,0c.29-.1.87.68,1.31,1.05-.35.4-.63,1-1.07,1.17-3.4,1.42-6.87,2.7-10.26,4.14-2,.83-3.79,1.91-5.7,2.83a4,4,0,0,1-1.17.15l.42-.88c-.5.34-1,.66-1.5,1-.06,0,0,.25,0,.38ZM279,4.82l.72-.51c-.12-.07-.26-.23-.35-.2a1,1,0,0,0-.44.33S278.93,4.65,279,4.82Z"/><path d="M295.13,13.26c-.64.83-.77,1.19-1,1.29-3.69,1.58-7.45,3-11.07,4.7s-6.89,3.72-10.36,5.54c-1.75.92-3.64,1.58-5.34,2.6s-3.31,2.41-5,3.57c-2,1.36-4,2.65-6,4-1.43.94-2.83,2-4.31,2.84-1.84,1.12-3.83,2-5.6,3.24-2.72,1.89-5.31,4-8,6a32.76,32.76,0,0,1-3.33,2.34,6.12,6.12,0,0,1-2.05.33c.27-.47.42-1.13.82-1.4,7-4.76,14-9.52,21-14.19,5.7-3.78,11.42-7.53,17.24-11.11,2.74-1.68,5.74-2.94,8.64-4.36,4-2,8-3.93,12-5.79C293.27,12.58,294.06,13,295.13,13.26Z"/><path d="M272.28,12.46c1.06-.64,2.09-1.33,3.18-1.9s2.76-1.85,3.39-1.48c1.59.93,1-.7,1.45-.9,1.79-.73,3.5-1.68,5.32-2.31a15.08,15.08,0,0,1,3.32-.35.68.68,0,0,0,.38-.15c.49-.43.95-.88,1.43-1.32l1.45-.11-.5-.6,2.65-1.11c.06.59.38,1.51.14,1.69a11.21,11.21,0,0,1-3.11,1.7,30.53,30.53,0,0,1-3.6.7s.08.58,0,.62c-1.27.63-2.58,1.19-3.86,1.81-4.75,2.32-9.59,4.51-14.22,7.05-4.94,2.71-9.71,5.72-14.51,8.69s-9.5,6-14.26,9a3.1,3.1,0,0,1-.94.26c.07-.49,0-1.24.25-1.45,3.42-2.51,6.89-5,10.37-7.4a1.62,1.62,0,0,1,.81-.1c.05,0,.16.21.14.24-.22.29-.46.55-.69.83l1.36-.79.21-.06c1.37-1.13,2.68-2.33,4.11-3.38a38.82,38.82,0,0,1,3.69-2.32c3.82-2.21,7.65-4.39,11.48-6.58l.43.71.68-.41Zm5.06-2.08c-.22-.07-.42-.18-.46-.14a8.71,8.71,0,0,0-.7.8s.14.15.15.14Z"/><path d="M252.43,25l-.21.06a5.42,5.42,0,0,1,0-.9c0-.06.34-.07.53-.11Z"/><path d="M228.53,54.08a5.07,5.07,0,0,1-.93.48,1.63,1.63,0,0,1-.55-.11c.28-.17.56-.34.84-.49C228,53.93,228.06,54,228.53,54.08Z"/><path class="cls-1" d="M74.18,209.74a12.5,12.5,0,0,1,4.12-.88c2.34,0,3.6,1.36,3.6,3.1a4,4,0,0,1-2.26,3.68,2.71,2.71,0,0,1,1.74,2.62c0,2.51-2.14,4.83-5.44,4.83H71.58Zm2,11.73a3,3,0,0,0,3.24-3c0-1.06-.66-1.94-2.26-1.94H74.7l-.94,4.91Zm.88-6.45a2.79,2.79,0,0,0,2.92-2.8c0-1-.58-1.72-2-1.72a6.14,6.14,0,0,0-2.14.4L75,215Z"/><path class="cls-1" d="M83.62,217.1c.56-2.82,2.14-4.58,4.88-4.58s4.1,1.82,3.56,4.58l-.32,1.68c-.56,2.83-2.16,4.57-4.9,4.57s-4.08-1.8-3.54-4.57Zm1.54,1.52c-.4,1.92,0,3.13,1.8,3.13s2.58-1.18,3-3.13l.28-1.36c.38-1.94,0-3.14-1.8-3.14s-2.56,1.2-3,3.14Z"/><path class="cls-1" d="M96.34,208.56h1.8l-2.42,12.49c-.1.52,0,.74.44.76l-.48,1.5a1.62,1.62,0,0,1-1.78-2.14Z"/><path class="cls-1" d="M101.16,208.56H103l-2.42,12.49c-.1.52,0,.74.44.76l-.48,1.5a1.62,1.62,0,0,1-1.78-2.14Z"/><path class="cls-1" d="M105.16,212.78h1.46l-.12,1.3a4.61,4.61,0,0,1,3.14-1.56,2.3,2.3,0,0,1,2.52,1.56,5.33,5.33,0,0,1,3.38-1.56c2.12,0,3,1.36,2.58,3.48l-1.28,6.65a.51.51,0,0,1-.52.44h-1.38l1.32-6.75c.28-1.48-.06-2.22-1.28-2.22a4.58,4.58,0,0,0-2.7,1.38,6,6,0,0,1-.12.8l-1.3,6.79h-1.8l1.3-6.75c.26-1.38,0-2.22-1.16-2.22a4.48,4.48,0,0,0-2.82,1.62L105,223.09h-1.8Z"/><path class="cls-1" d="M120.46,217.08c.54-2.82,2.12-4.56,4.88-4.56a8.14,8.14,0,0,1,3.88,1.16l-1.82,9.41H126l.1-1.3a4.36,4.36,0,0,1-3.18,1.56c-2.24,0-3.3-1.92-2.86-4.16Zm1.46,1.92c-.3,1.57.06,2.75,1.46,2.75a4.22,4.22,0,0,0,2.8-1.67l1.06-5.48a5,5,0,0,0-2-.48c-1.72,0-2.6,1.2-3,3.16Z"/><path class="cls-1" d="M132.32,212.78h1.46l-.12,1.32a4.62,4.62,0,0,1,3.22-1.58c2.12,0,3.1,1.36,2.68,3.5l-1.28,6.63a.5.5,0,0,1-.5.44H136.4l1.32-6.75c.28-1.44,0-2.22-1.32-2.22a4.59,4.59,0,0,0-2.86,1.66l-1.42,7.31h-1.8Z"/><path class="cls-1" d="M143.1,212.78h1.46l-.12,1.32a4.62,4.62,0,0,1,3.22-1.58c2.12,0,3.1,1.36,2.68,3.5l-1.28,6.63a.5.5,0,0,1-.5.44h-1.38l1.32-6.75c.28-1.44,0-2.22-1.32-2.22a4.59,4.59,0,0,0-2.86,1.66l-1.42,7.31h-1.8Z"/><path class="cls-1" d="M151.88,221.19a7,7,0,0,0,2.56.56c1.3,0,2-.68,2-1.68,0-1.58-3.74-1.54-3.74-4.11,0-2,1.78-3.44,4-3.44a6.24,6.24,0,0,1,2.42.5l-.6,1.5a6.14,6.14,0,0,0-2-.4c-1.12,0-1.92.6-1.92,1.54,0,1.64,3.76,1.7,3.76,4.11,0,2.16-1.8,3.58-4.1,3.58a7.57,7.57,0,0,1-2.94-.6Z"/><path class="cls-1" d="M162.1,212.78h1.46l-.08,1.42a4.29,4.29,0,0,1,2.84-1.66,3.67,3.67,0,0,1,.94.12l-.46,1.56a3.16,3.16,0,0,0-.76-.08,4.87,4.87,0,0,0-2.72,1.68l-1.42,7.27h-1.8Z"/><path class="cls-1" d="M169,213.22a.51.51,0,0,1,.5-.44h1.38l-1.32,6.76c-.28,1.49.1,2.21,1.38,2.21a4.34,4.34,0,0,0,2.8-1.67l1.42-7.3h1.8l-2,10.31h-1.44l.12-1.32a4.63,4.63,0,0,1-3.24,1.58c-2.06,0-3.1-1.36-2.68-3.48Z"/><path class="cls-1" d="M180.82,208.56h1.8l-1,5.3a4.85,4.85,0,0,1,3-1.34c2.12,0,3,1.36,2.6,3.5L186,222.65a.5.5,0,0,1-.5.44h-1.38l1.32-6.75c.28-1.44,0-2.22-1.28-2.22a4.72,4.72,0,0,0-2.88,1.56l-1.44,7.41H178Z"/><path class="cls-1" d="M198.46,213.74a3,3,0,1,1-3,3A3.05,3.05,0,0,1,198.46,213.74Z"/><path class="cls-1" d="M210.28,214c.64-3.32,2.74-5.18,5.94-5.18a11.82,11.82,0,0,1,3.74.6l-.6,1.56a10.51,10.51,0,0,0-3.26-.52c-2.34,0-3.52,1.46-4,3.76l-.72,3.7c-.52,2.65.38,3.77,2.5,3.77a9.63,9.63,0,0,0,2.84-.49l.92-4.76,1.82-.18-1.2,6.27a18.36,18.36,0,0,1-4.8.78c-3.1,0-4.66-1.84-4-5.19Z"/><path class="cls-1" d="M221.88,217.14c.58-3,2.26-4.62,4.9-4.62,2,0,3.28,1.2,3.28,2.74,0,2.06-1.9,3.24-5.2,3.42l-1.48.08c-.34,1.86.16,3,1.84,3a10.81,10.81,0,0,0,3.26-.7l.08,1.56a10.34,10.34,0,0,1-3.6.74c-2.46,0-4-1.62-3.4-4.63Zm3,.16c1.82-.1,3.4-.64,3.4-1.84,0-.76-.48-1.34-1.56-1.34-1.82,0-2.66,1.34-3,3.26Z"/><path class="cls-1" d="M233.26,212.78h1.46l-.08,1.42a4.29,4.29,0,0,1,2.84-1.66,3.67,3.67,0,0,1,.94.12l-.46,1.56a3.16,3.16,0,0,0-.76-.08,4.87,4.87,0,0,0-2.72,1.68l-1.42,7.27h-1.8Z"/><path class="cls-1" d="M240.38,212.78h1.46l-.12,1.3a4.61,4.61,0,0,1,3.14-1.56,2.3,2.3,0,0,1,2.52,1.56,5.33,5.33,0,0,1,3.38-1.56c2.12,0,3,1.36,2.58,3.48l-1.28,6.65a.51.51,0,0,1-.52.44h-1.38l1.32-6.75c.28-1.48-.06-2.22-1.28-2.22a4.58,4.58,0,0,0-2.7,1.38,6,6,0,0,1-.12.8l-1.3,6.79h-1.8l1.3-6.75c.26-1.38,0-2.22-1.16-2.22a4.48,4.48,0,0,0-2.82,1.62l-1.42,7.35h-1.8Z"/><path class="cls-1" d="M255.68,217.08c.54-2.82,2.12-4.56,4.88-4.56a8.14,8.14,0,0,1,3.88,1.16l-1.82,9.41h-1.4l.1-1.3a4.36,4.36,0,0,1-3.18,1.56c-2.24,0-3.3-1.92-2.86-4.16Zm1.46,1.92c-.3,1.57.06,2.75,1.46,2.75a4.22,4.22,0,0,0,2.8-1.67l1.06-5.48a5,5,0,0,0-2-.48c-1.72,0-2.6,1.2-3,3.16Z"/><path class="cls-1" d="M267.54,212.78H269l-.12,1.32a4.62,4.62,0,0,1,3.22-1.58c2.12,0,3.1,1.36,2.68,3.5l-1.28,6.63a.5.5,0,0,1-.5.44h-1.38l1.32-6.75c.28-1.44,0-2.22-1.32-2.22a4.59,4.59,0,0,0-2.86,1.66l-1.42,7.31h-1.8Z"/><path class="cls-1" d="M279.28,225.53c1.22,0,1.72-.72,2-1.82l.26-1a4.88,4.88,0,0,1-1.82.42c-2.1,0-2.86-1.32-2.72-3.4l.42-6.91h1.78l-.38,6.67c-.06,1.13.16,2,1.34,2a4.16,4.16,0,0,0,1.76-.44l2-8.25h1.74l-2.7,11a3.9,3.9,0,0,1-4.08,3.3H277l.2-1.58Z"/><path class="cls-1" d="M0,147.69a2,2,0,0,1,2.16-2.16H4.32a2,2,0,0,1,2.16,2.16v27.09a2,2,0,0,1-2.16,2.16H2.16A2,2,0,0,1,0,174.78Z"/><path class="cls-1" d="M15.25,147.83a2.36,2.36,0,0,1,2.43-2.3h2.7a2.72,2.72,0,0,1,2.7,2.12l6.26,21.19c0,.18.18.5.36.5s.31-.32.36-.5l6.21-21.15a2.72,2.72,0,0,1,2.7-2.16h2.7a2.39,2.39,0,0,1,2.43,2.25l3.19,26.91a1.78,1.78,0,0,1-1.89,2.25H43.24a2.27,2.27,0,0,1-2.34-2.16L39.73,163c-.18-1.62-.27-3.78-.36-5.94A54.51,54.51,0,0,1,38,163l-1.93,6.52c-.86,2.93-2.57,5.44-6.39,5.44s-5.58-2.51-6.39-5.44l-1.94-6.79c-.49-1.62-.94-3.74-1.35-5.9-.09,2.21-.18,4.37-.36,6l-1.21,11.84a2.26,2.26,0,0,1-2.3,2.2H14a1.8,1.8,0,0,1-1.89-2.25Z"/><path class="cls-1" d="M51.84,156.56c0-7.47,4.54-11.61,11.7-11.61a29.77,29.77,0,0,1,7.47.9A1.64,1.64,0,0,1,72.22,148l-.4,1.85A1.64,1.64,0,0,1,69.66,151a22.44,22.44,0,0,0-5.22-.63c-3.69,0-5.94,1.57-5.94,6.7v8.37c0,5.13,2.25,6.7,5.94,6.7a21.5,21.5,0,0,0,5.44-.67,1.44,1.44,0,0,1,1.94,1.21l.4,1.85A1.73,1.73,0,0,1,71,176.62a29.26,29.26,0,0,1-7.47.91c-7.16,0-11.7-4.1-11.7-11.61Z"/><path class="cls-1" d="M308.3,173.08c0-11.79,13.32-13.05,13.32-19,0-1.66-.72-3.68-4.18-3.68a13,13,0,0,0-4.64,1,1.94,1.94,0,0,1-2.79-1.17l-.36-.89a2,2,0,0,1,1.31-2.84,17.92,17.92,0,0,1,6.57-1.4c6.48,0,10.48,3.78,10.48,9,0,9.23-13.27,11.3-13.27,17.78H325.9a2,2,0,0,1,2.16,2.16v.9A2,2,0,0,1,325.9,177H310.46a2,2,0,0,1-2.16-2.16Z"/><path class="cls-1" d="M331.67,157.87c0-7.92,4.05-12.83,11.21-12.83s11.2,5.13,11.2,12.83v6.88c0,7.92-4,12.87-11.2,12.87s-11.21-5.13-11.21-12.87Zm16,6v-5.08c0-5-1.17-8.41-4.81-8.41s-4.82,3.32-4.82,8.41v5.08c0,5.09,1.13,8.46,4.82,8.46S347.69,168.94,347.69,163.85Z"/><path class="cls-1" d="M358.19,174a2,2,0,0,1,2.16-2.16h4.23V152l-3.83,1.57a2,2,0,0,1-2.83-1l-.5-1.08a1.89,1.89,0,0,1,1.17-2.79l5.9-2.34a7.89,7.89,0,0,1,3.06-.72h1.17a2,2,0,0,1,2.16,2.16v24.07H374a2,2,0,0,1,2.16,2.16v.86A2,2,0,0,1,374,177H360.35a2,2,0,0,1-2.16-2.16Z"/><path class="cls-1" d="M381.26,172.76c.41-1.3,1.44-1.62,2.7-1.21a14.19,14.19,0,0,0,4.28.76c4.27,0,5.08-3,5.08-5.49v-1.48a10.42,10.42,0,0,1-4.81,1.21c-5.94,0-10.4-3.55-10.4-10.71,0-6.88,4.82-10.8,10.76-10.8s10.75,3.92,10.75,10.8v11c0,5.76-3.28,10.8-11.2,10.8a20.46,20.46,0,0,1-6.08-1A2.07,2.07,0,0,1,381,173.8Zm12.06-12.46v-4.5c0-2.93-1.3-5.44-4.45-5.44s-4.37,2.51-4.37,5.48c0,3.15,1.26,5.63,4.5,5.63A9.56,9.56,0,0,0,393.32,160.3Z"/></g></svg>