<svg xmlns="http://www.w3.org/2000/svg" viewBox="0 0 611.5 580.3"><title>imc2019</title><path d="M545.6,0l2.4,3.4c-1.3,1-2.6,2.5-4.2,3.3q-20.5,9.1-41.1,17.9c-1,.4-2.5-0.1-3.7.1a10.8,10.8,0,0,0-2.3.7c1.1,2.3-1.2,2.6-2.3,3.2-6.1,3.8-12.2,7.8-18.7,10.9-30.1,14.3-57,33.5-83.8,52.9a46.9,46.9,0,0,1-5.3,2.9c-1.1-3.2-.1-4.8,1.9-6.4C413.6,69.6,439.8,52,468,37.6c17.3-8.9,34.2-18.8,51.5-27.7,7.1-3.7,14.9-6.1,22.4-9.1l1.7-.8h1.9Z" transform="translate(0 0)" style="fill:#fff"/><path d="M322.8,195.5a67.8,67.8,0,0,1,1.7-8.3q4.9-14.4,10.2-28.6a17.9,17.9,0,0,0,.7-12.1,43,43,0,0,0-5.2.4l-18.4,3.8c-5.5,1.1-6.3.9-11.3-2.5,3.2-3.3,6.3-6.3,11.1-7.2,1.6-.3,2.8-2.4,4.3-2.5,5.8-.5,7.9-6.2,12.3-8.6,2.4-1.3,2.9-3.3,2.6-6-0.9-9.6-4-18.5-7.7-27.3a16.6,16.6,0,0,1-1-7.4c0.1-1.9,1.9-2.9,3.9-1.9a14.3,14.3,0,0,1,3.7,2.4L352,111.9l1.8,1.8c2.8,2.4,4.4,2.3,5.5-1.2a153.6,153.6,0,0,0,3.5-15.7c0.8-4.2,1.1-8.6,2.2-12.7s2.5-6,4-9.6c3.5,4,6,7,5.7,11.7-0.5,7.7-.7,15.5-0.9,23.3,0,1.1.4,3,1,3.1s4.5,1.1,6,.3c9-5,17.5-10.7,27.4-14,1.9-.6,3.7-1.1,4.8,1s0.2,3.6-1.6,5q-13.3,10.8-26.5,21.8a63.1,63.1,0,0,0-5,5.2,22.9,22.9,0,0,0,10.7,8.3c6.6,2.3,13.1,4.9,19.7,7.3,0.9,0.3,2.1.5,2.6,1.1a45.4,45.4,0,0,1,3.2,4.9c-1.5.7-3.2,2.1-4.6,1.9-9.8-1.1-19.7-2.3-29.5-4s-11.6.5-9.5,9.3,4.7,16.1,7.1,24.2c0.4,1.4.8,2.9,1.1,4.3-5.3,2.5-6.3,2.3-9.7-2a45.8,45.8,0,0,1-8.7-17.2c-1.3-5-3.3-9.6-8.7-12.5-1.9,2.5-4.2,4.9-5.8,7.8-4.7,8.4-9.1,16.9-13.6,25.3C330.8,196.7,330.5,196.8,322.8,195.5ZM366.2,106H365c-0.7,4.5-1.3,9.1-2.1,13.6-0.3,1.8-.8,3.6-1.3,5.4-2-.6-4.1-0.9-5.9-1.8a21.6,21.6,0,0,1-4.4-3.8l-14.1-13.8a23.8,23.8,0,0,0-3.1-2.2c-1,7.6-.5,14.2,3.3,20.3a17.1,17.1,0,0,1,1,2c1.5,3.4.9,5.2-2.4,6.8l-12,5.7-2.6,1.4a3.9,3.9,0,0,0,2.6.9l15.2-.4c3.3-.1,4.6,1.2,3.9,4.5a24.4,24.4,0,0,1-.8,2.5l-8.1,25.6c-0.3.8-.4,1.6-0.6,2.5a6,6,0,0,0,2.7-2.2c3.3-4.7,6.3-9.5,9.8-14s5.7-5.9,8.9-9.3l11,12.4c0-2.6-.7-4.8-0.9-7.1a30.1,30.1,0,0,1,.3-6.9c0.3-1.7,1.6-2.3,3.4-2l11.5,1.6,9.7,1.2,0.2-1.4h-5l2.5-2.2L369,133.7c3.5-2.7,6-6.6,9.9-5.8l4.6-10.1c-1.9,1-3.8,1.9-5.5,3.1s-4.7,1.2-6.9-.2-5.6-2-4.9-6.1S366.2,108.8,366.2,106Z" transform="translate(0 0)" style="fill:#fff"/><path d="M401,133.9c1.6-1.8,2.4-3.4,3.7-4.3,34.6-22.9,68.8-46.5,104.1-68.4,16.7-10.4,35.2-17.7,53-26.1,1.9-.9,4.6.1,7,0.2l0.4,1.3c-1.7,1.3-3.3,3-5.2,3.7-18.4,7.2-35.7,16.6-53.4,25.3S475.3,88.8,457,99.3c-16.4,9.3-31.4,20.4-46.4,31.7C406.5,134.1,405.9,134.1,401,133.9Z" transform="translate(0 0)" style="fill:#fff"/><path d="M419.5,90.1c1-1.4,1.7-3.3,3.1-4.2q12.2-9,24.8-17.7c1.2-.8,3.1-0.8,4.6-1.1l0.6,1,1-3.3,1.2,1.8c14.9-13.8,33.8-21.4,50.7-32.3l1.8,1.5c0.1,0.1.4-.1,0.1-0.7s1.5-2.4,2.6-3.1c3.2-2.1,6.6-4,10-6s4.6-2.7,6.4-1.2c6.9-5.5,14.1-8.9,22.5-9.8,2.7-.3,5.1-0.5,6.9-2.8l0.5-.4,10.3-6c1.9,3.1,1.6,5.2-1.5,6.5a67.9,67.9,0,0,1-10.2,3.8,20.5,20.5,0,0,0-7.1,3.3c-3.5,2.3-7.5,3.8-11.3,5.5-36.7,16.3-70.2,38.2-104,59.6L424,89.7a27.8,27.8,0,0,1-3.4,1.5Z" transform="translate(0 0)" style="fill:#fff"/><path d="M136,295.1c-1-1.4-1.8-3.1-3.1-4.2-3.4-2.9-6.8-5.7-11.3-7.2-2.6-.9-5-4.2-6.1-7-4.2-10.8.9-28.3,10.1-35.4s17.8-7.7,27.9-5.6l4.7,1.2c2.8,0.8,5.2,1.4,7.4,4.2s6.3,4.5,10,5.3c6.2,1.4,7.5,2.9,7.4,9.4a38.2,38.2,0,0,0,1.8,10.7c1.7,6.1,1,9.7-4,13.4-11.1,8-16.1,19.6-17.9,32.5-1.2,8.8-.7,17.9-1.2,26.8-0.3,4.4-1.3,8.7-1.8,13.1-0.2,1.9-.4,4,0.3,5.6a19.1,19.1,0,0,0,20.4,10.9c3.2-.5,6.2-0.9,9,1a3.3,3.3,0,0,0,1.8.5c10.2-.5,20.6-0.6,29.4-7.1,4-2.9,8.3-4.2,13.4-2.9s7.2-.4,10.4-2.6c16.7-10.9,33.5-21.7,50.1-32.7s32.2-17,48.4-25.2a734.4,734.4,0,0,1,111.9-45.4c25.4-7.9,51.3-14.1,77-21a26.8,26.8,0,0,1,9.1-.6c-1.8.7-3.5,1.5-5.3,1.9-38.9,10.4-76.1,25.8-113.7,40-15.5,5.9-31.5,10.7-46.4,17.8a794,794,0,0,0-98.3,55.2c-8.9,5.9-18.2,11.2-27.4,16.5a21.2,21.2,0,0,0-10.4,13c-2.7,9.3-6.3,11.6-15.8,11.9-3.2.1-6.6,1.8-9.5,3.4s-6.3,4.5-9.4,6.8-4.4,5.3-2.7,9.2,4.1,8.8,6.1,13.2,4.7,5.6,9,5.5c15.8-.5,31.7-0.4,47.5-1.5,19.1-1.3,38.3-3,57.3-5.6s36.7-6.4,55.1-9.6c22.8-3.9,45.8-7.3,68.6-11.6,32.1-6,64.1-12.7,94.5-25,4.4-1.8,9-3,13.5-4.4a13.8,13.8,0,0,1,4.8-.7,24.1,24.1,0,0,1,4.8,1.3,30.9,30.9,0,0,1-1.9,4.2c-6.3,9.7-12.5,19.4-18.9,29a752.2,752.2,0,0,1-50,66c-4.4,5.3-9.4,10.1-14.1,15.2-1.6,1.7-3.3,2.7-5.4,1.2-8.2-6.1-17.4-4.7-26.5-3.5-12,1.6-23.1,6.1-34.2,10.4-1.4.6-3.3,1.1-4.6,0.7-2.9-.8-5.5-1.5-8.4.4-0.8.5-3.6-.8-4.8-2-7.4-7.9-16.4-12.1-27.4-11.5a117.8,117.8,0,0,0-44.7,10.6,23.6,23.6,0,0,1-3.7,1.2c-4,1.1-7.4,2-10.4-2.8s-8.3-5.5-13.4-4.8c-12.8,1.8-25.6,3.5-38.3,6.2-8.6,1.8-16.9,5.1-25.2,7.9-5,1.7-9.1-1.3-13.7-2.2a1.6,1.6,0,0,1-.9-1.2c0.5-3.6-2.5-3.9-4.7-5.1a8.3,8.3,0,0,1-1.7-.9c-7.5-6.8-16.6-5.9-25.4-5a249.2,249.2,0,0,0-49,10.1c-4.7,1.4-10,1.1-15,1.1-1,0-2.8-1.9-3-3.1-1.2-10.9-12.2-16.2-22.9-12.5-4.1,1.4-8,3.2-12.1,4.6s-10.5,3.2-15.7,4.9a42,42,0,0,0-6.8,2.9c-8.1,4.4-10.7,4.3-16.5-2.7-11.4-14-22.4-28.2-33.5-42.4a123.6,123.6,0,0,1-9.3-13.6c-3.4-5.9-.9-10.4,5.9-11.1s16.1-1.5,24.2-1.9,16.8-.4,25.2-0.3c2.8,0,3.8-1.1,4.2-3.7,1.9-12.4,3.6-24.8,6.1-37A60.8,60.8,0,0,1,73,363.7c4.6-8.8,9.7-17.3,14.6-25.9a100.6,100.6,0,0,1,27.3-30.4,36.1,36.1,0,0,1,7.7-4.1c3.3-1.4,6.6-2.4,8.8-5.6C132.2,296.6,134.1,296.2,136,295.1Zm413,84.9-0.5-.6-4.1,1.4c-14.2,5.1-28.4,10.3-42.6,15.2-7.2,2.5-15,3.7-21.8,6.9A124.4,124.4,0,0,1,445.6,413c-15.9,2.5-31.9,4.3-47.8,6.5-13.7,1.9-27.2,4.4-40.9,6-9.4,1.1-18.9,1.3-28.4,2a38.7,38.7,0,0,0-5.9,1.3,35.2,35.2,0,0,1-5.4,1.2c-2.8.2-5.9-.8-8.3,0.2-5.2,2.2-10.6,2.7-16.1,3.2-21.7,1.9-43.4,3.9-65.1,5.5-19.5,1.4-39,2.6-58.5,3.5-15.5.8-31,1.1-46.6,1.6-2.7.1-5.4-.3-8.1-0.4v-1a21,21,0,0,1,3.8-.9l27.1-1.4,11.1-.9a2.9,2.9,0,0,0-2-1.5c-5.3-.5-10.5-1.2-15.8-1.2l-70.3-.5c-5.5,0-11-.2-16.5-0.7-12.7-1.2-25.3-2.6-38-4a21.5,21.5,0,0,0-3.6.3c2.3,2.7,4.5,4.6,5.9,6.9,9.9,17.2,25,30.2,36.3,46.3,0.5,0.8,2.3,1.5,3,1.2,5.1-2.4,11-3,15-7.7,0.8-1,2.6-1.2,4-1.7l8.2-3.4a14.1,14.1,0,0,1,3.2-.8c1.6-.2,3.3-0.1,4.9-0.5s4-1.6,6.1-1.7c5.2-.3,10.4-0.3,15.5-0.1,11.1,0.5,14.6,3.9,15.8,15,0.3,2.9,1.3,3.5,4.1,2.4,6.9-2.8,13.6-6,20.6-8.6s14.4-6,21.9-7.6c10.6-2.3,21.5-3.2,32.3-4.7,8.1-1.2,11.4.8,13.2,8.9,1.1,4.8,1.8,9.7,2.8,15,1.5-.5,3-0.8,4.3-1.3L263.3,475a72.9,72.9,0,0,1,32.1-4.8c6.1,0.4,11.7,1.8,13.9,8.9,1.1,3.7,3.8,4.1,7.6,2.5s6.9-3,10.4-4.2q10.9-3.5,21.9-6.6a19.5,19.5,0,0,1,7-.9c11.2,1.1,22.6,1.3,32.5,8.1,2.7,1.9,6.4,2.3,9,4.2s6.1,2.1,9.6.7a100.2,100.2,0,0,1,14.1-4.3,130.8,130.8,0,0,1,14-2.3c10.3-1.3,20.7-3.7,31.1-.1,4.5,1.6,7.5.2,10.6-3.4,25.2-28.6,49-58.3,70.1-90.1ZM148.2,342.5c3.6-9.3,8.2-18.1,8-28a37.7,37.7,0,0,1,8.9-25.9c2.2-2.7,4-5.7,6.4-8.2,5.7-6,6.5-12.8,5.3-20.7-0.6-3.7-2.2-5.6-5.4-6.5a19.2,19.2,0,0,1-10.2-7,14.8,14.8,0,0,0-9.9-5.5c-14.7-2.4-28.3,7-31.6,21.8-2.7,12.2,8,22,19.9,18.2,3.7-1.2,7.4-2.8,11.6-4.4,0,1.7.4,3.6-.1,5.2s-3,5.4-3.5,8.2c-1.6,8.9-6.9,14.8-14.1,19.6s-14.4,10.3-21.6,15.4c-18,12.8-29.1,30.1-33.8,51.5-2.7,12.6-5.2,25.3-7.7,38a17.8,17.8,0,0,0,.2,4.5c0.1,2.2,1.4,3.2,3.5,3.5l32.7,4.4a14.4,14.4,0,0,0,12.9-4.5c5.4-5.5,11.1-10.8,16.7-16.2s7.5-13.1,2.6-20.9L128.2,368c-4.4-6.9-7.4-14.3-7.9-22.6s4.9-19.9,12.7-23.2c2.2-.9,4-0.8,5.8,1.4l-2.7,1.5c-5.2,2.5-8.2,6.6-8.7,12.3s-0.2,12.2,2.8,17.6c6,11,12.2,21.8,18.4,32.7a17.5,17.5,0,0,0,3,3.3,4.1,4.1,0,0,0,5.3.7c4.8-2.5,9.7-4.7,14.4-7.3s11-3.4,16.9-2.8a3.6,3.6,0,0,1,3.6,2.9c0.6,2.2,1.5,4.4,2.3,6.7,1.8-.8,3.4-1.5,4.9-2.3a41.4,41.4,0,0,0,4.1-2.6c6.3-4.5,9-4.4,13.8-.3a2.7,2.7,0,0,0,1-.1c0.1-.9.3-1.9,0.5-2.9s1.1-2.8,2.8-2.1,3-.1,4-1.5,2.9-4.2,4.5-6.3a29.1,29.1,0,0,1,3.1-2.9c-0.7-.6-1.5-2-2.3-2-6.1.3-12.4-.2-17.5,4.3-7.7,6.9-17.2,8.5-26.8,7.5a44,44,0,0,0-13.7.4c-5.9,1.2-9-.4-12-5.7S154,363,150.4,357.4s-7-9.8-10.3-14.9c-1.1-1.7-1.2-4-1.9-6.7C142.9,337.1,146.7,337.9,148.2,342.5Zm41.8,83.6c1.5,0.1,3.5.9,4.4,0.2s1-2.9.8-4.3a65.2,65.2,0,0,0-2.3-9.4c-1.9-5.9-3.9-11.8-6.2-17.5a7.8,7.8,0,0,0-3.2-3.4,9.9,9.9,0,0,0-9.6-.3,67.8,67.8,0,0,0-8.2,4.4L125,422.3c-0.8.5-1.6,1.3-3.1,2.5a34.3,34.3,0,0,0,4,0,103.8,103.8,0,0,1,35.4.5c6.2,1.2,12.6,1.5,18.9,2.3,2.2,0.3,3.6-.6,4.7-2.5s4.1-4.3,7.6-4.9Zm-13,10.6v1a26.1,26.1,0,0,0,4,.4l41.6-2.5a18.5,18.5,0,0,0,3.7-1l-0.2-1.3Zm113.5,38.1c3.5,1.2,6.8,3.5,11.2,1.4C297.9,473.1,294.1,473.9,290.4,474.8Zm-98.2,1.1v1.5l10.3,0.5v-1.4Zm59.7,10.7-0.9-.9-4.5,2.7,3.2,1.6Z" transform="translate(0 0)" style="fill:#fff"/><path d="M591.1,221.8a19,19,0,0,1-3.2,1.3c-5.4,1.1-10.8,2-16.1,3.2a51,51,0,0,0-6.7,2.5c-0.8-1.5,0-3.5,2.7-4,4.9-1,9.6-2.9,14.9-2.2,1.9,0.2,3.9-1,5.9-1.5a17.6,17.6,0,0,1,2.4-.3Z" transform="translate(0 0)" style="fill:#fff"/><path d="M611.5,220.1l-8.4,1C606.8,217.9,607.2,217.8,611.5,220.1Z" transform="translate(0 0)" style="fill:#fff"/><path d="M600.2,220.2a26.2,26.2,0,0,1-3.6,1.9,4.3,4.3,0,0,1-2.2-.1,1.4,1.4,0,0,1-.3-1.3,3.5,3.5,0,0,1,1.9-1.3A20.2,20.2,0,0,1,600.2,220.2Z" transform="translate(0 0)" style="fill:#fff"/><path d="M463.9,561.6c-0.2.8-.4,1.6-0.6,2.5-1.9,9.3-8.6,15.2-18.1,16.1a37.7,37.7,0,0,1-15.2-1.7c-3.4-1.1-4.2-3-3.1-6.9s2.5-4.1,6-3.3a42.1,42.1,0,0,0,9.3,1.4c4.9,0,7.9-3,8.7-7.8a52.7,52.7,0,0,0,.3-5.4l-1.7.5c-15.1,5.8-28.5-3.5-28.5-19.7,0-9.5,4.4-16.6,12.4-19.9s18.7-1.6,24.7,4.5a20.1,20.1,0,0,1,5.4,11.2,11.7,11.7,0,0,0,.5,1.5v27.1Zm-12.8-21.5h0.3a60,60,0,0,0-1.1-7.9c-1-3.9-4.1-5.9-8.2-5.8s-6.7,2.1-7.7,6.1a22.6,22.6,0,0,0-.6,5.9c0.2,7.6,4.8,11.2,12.3,9.5,4.8-1.1,5-1.3,5-6.2Q451.1,540.8,451.1,540.1Z" transform="translate(0 0)" style="fill:#fff"/><path d="M373.8,548.2c-0.4,4.9-.4,9.8-1.3,14.6-2.2,11.4-9.8,17.4-21.2,17.4s-19.2-6.1-21.6-17.4a48.7,48.7,0,0,1-.9-10.4c0.1-6.5-.2-13.1.9-19.4,3-16.8,23.2-23.6,36.1-12.3,5.4,4.8,7.1,11.3,7.5,18.2,0.2,3.1,0,6.2,0,9.3h0.4Zm-12.8,0h-0.4a59,59,0,0,0-.1-7.1,51.7,51.7,0,0,0-1.9-9.7c-1-3.2-3.6-4.9-7.1-5s-8.4,2.4-8.9,7.7c-0.8,7.8-.7,15.8-0.7,23.7a22,22,0,0,0,1.6,7.1,7.1,7.1,0,0,0,5.1,4.6c5.2,1.4,9.7-1.2,10.9-7.1S360.5,552.9,361,548.2Z" transform="translate(0 0)" style="fill:#fff"/><path d="M295.3,568.7h20.8c4.9,0,7.3,3.5,5.2,7.9a5,5,0,0,1-3.7,2.4c-10.4.2-20.8,0.2-31.2,0.1-2.6,0-3.8-1.7-4-4.3-0.9-10.9,3.3-19.4,12-25.9,3.3-2.5,6.6-4.9,9.8-7.5s4.1-4,4.5-7-1.9-7.9-6.4-7.9a43.2,43.2,0,0,0-10.4,1.6c-3.6.9-5.1,0.4-6.5-3.3s-0.6-5.2,2.8-6.6c7.1-2.9,14.4-3.8,21.8-1.1,11.1,4,15.2,16.4,8.7,26.3-2.9,4.5-7.2,7.5-11.3,10.7s-6.3,5.1-9.2,7.9A9.4,9.4,0,0,0,295.3,568.7Z" transform="translate(0 0)" style="fill:#fff"/><path d="M394,529.7l-7.3,3c-3.3,1.3-5.1.2-6.8-4.2-1.1-2.8-.3-4.6,2.7-5.8s8.2-3.5,12.4-4.8a30.9,30.9,0,0,1,7.9-1c2.1-.1,3.3,1.3,3.7,3.3a14.2,14.2,0,0,1,.1,2.6q0,21.5,0,43.1c0,0.9,0,1.7,0,2.9h5.8c3.2,0.1,4.6,1.6,4.6,5s-1.2,5.4-4.5,5.4H385.8c-3.2,0-4.4-1.7-4.3-5.5s1.4-4.8,4.5-4.9h8V529.7Z" transform="translate(0 0)" style="fill:#fff"/><path d="M116.9,519.2c1.9-3.2,8.5-4.7,11.4-2.3a5.8,5.8,0,0,1,1.6,3.9c0.2,6.3.1,12.7,0.1,19q0,16.6,0,33.3c0,4.1-1.2,5.3-5.4,5.4h-1.7c-2.7.3-4.8-.6-6-3.1V519.2Z" transform="translate(0 0)" style="fill:#fff"/><path d="M176.4,562.9l2.8-9.3,9.6-32.6c1.1-3.9,2.7-5.1,6.7-5.1,8.1-.1,8.6.3,9.6,8.4l5.9,49.3c0.4,3.1-.9,4.6-4,4.8-7.5.4-8.5-.6-9.2-8.2-0.8-9.4-1.8-18.8-2.7-28.3a6.6,6.6,0,0,0-.5,1.1c-2.1,7.4-4,14.8-6.3,22.2s-7.1,10.1-14.3,9.2a10.6,10.6,0,0,1-8.8-6.1,54.5,54.5,0,0,1-3-8.5c-1.8-6.1-3.4-12.3-5.2-18.8-0.5,5.5-1,10.7-1.5,16s-1,10.6-1.6,15.9-1.8,5.6-6.3,5.6c-6.5,0-7.1-.6-6.4-7q3-25.3,6.1-50.5c0.4-3.6,2-4.9,5.7-5.1,8.1-.3,8.8.3,11.1,8.1l10.8,36.4c0.2,0.8.5,1.6,0.8,2.4h0.7Z" transform="translate(0 0)" style="fill:#fff"/><path d="M220.1,547.1c0-4.2-.3-8.4.1-12.6,1.1-11.7,8.7-19.1,20.4-19.5,5.5-.2,11,0.7,16.5,1.4,3.1,0.4,3.9,1.9,3.2,5.1l-0.5,2.1c-0.7,3-1.8,3.6-4.9,3.2a97.9,97.9,0,0,0-10.9-1c-6.3-.1-10.2,3.2-10.5,9.5-0.4,8-.4,16,0,24,0.3,6,4,9.3,10,9.3a76.1,76.1,0,0,0,11.5-1.1c3.1-.5,3.9-0.1,4.7,3,0.2,1,.5,2,0.6,3s-0.4,3.7-2.5,4.2c-7.6,1.9-15.3,2.8-23,.8a19.3,19.3,0,0,1-14.6-17.4c-0.4-4.6-.1-9.3-0.1-14h-0.1Z" transform="translate(0 0)" style="fill:#fff"/></svg>