<?xml version="1.0" encoding="utf-8"?>
<!-- Generator: Adobe Illustrator 19.2.1, SVG Export Plug-In . SVG Version: 6.00 Build 0)  -->
<svg version="1.1" xmlns="http://www.w3.org/2000/svg" xmlns:xlink="http://www.w3.org/1999/xlink" x="0px" y="0px"
	 viewBox="0 0 585 584.7" style="enable-background:new 0 0 585 584.7;" xml:space="preserve">
<style type="text/css">
	.st0{display:none;}
	.st1{fill:#FFFFFF;}
</style>
<g id="Calque_1">
</g>
<g id="Calque_2">
	<rect class="st0" width="584.7" height="584.7"/>
	<g>
		<path class="st1" d="M204.8,444.8c2.9,0.1,5.9,0.3,8.8,0.4c0-0.4,0-0.8,0-1.2c-2.9-0.2-5.9-0.4-8.8-0.5
			C204.9,443.9,204.9,444.4,204.8,444.8z"/>
		<path class="st1" d="M103.8,397.4c9.3,1.2,18.6,2.6,28,3.8c4.3,0.6,7.9-0.6,11-3.8c4.6-4.7,9.5-9.2,14.3-13.8
			c5.7-5.5,6.5-11.2,2.3-17.9c-3-4.8-6.1-9.7-9.2-14.5c-3.8-5.9-6.3-12.3-6.8-19.4c-0.6-8.3,4.2-17.1,10.9-19.9
			c1.9-0.8,3.4-0.7,4.9,1.2c-0.9,0.5-1.6,0.9-2.3,1.2c-4.4,2.1-7,5.6-7.5,10.5c-0.5,5.2-0.1,10.4,2.4,15.1
			c5.2,9.4,10.5,18.7,15.8,28c0.6,1.1,1.7,1.9,2.6,2.8c1.3,1.3,2.8,1.5,4.5,0.6c4.1-2.1,8.3-4,12.3-6.3c4.6-2.5,9.4-2.9,14.5-2.4
			c1.7,0.2,2.7,0.8,3.1,2.5c0.5,1.9,1.3,3.8,2,5.8c1.5-0.7,2.9-1.3,4.2-2c1.2-0.7,2.4-1.4,3.5-2.2c5.4-3.9,7.7-3.8,11.8-0.3
			c0.1,0.1,0.3,0,0.9-0.1c0.1-0.8,0.3-1.6,0.4-2.5c0.2-1.4,1-2.4,2.4-1.8c1.7,0.7,2.6-0.1,3.4-1.3c1.3-1.8,2.5-3.6,3.8-5.4
			c0.7-0.9,1.6-1.5,2.7-2.5c-0.6-0.5-1.3-1.7-2-1.7c-5.2,0.3-10.6-0.2-15,3.7c-6.6,5.9-14.7,7.2-23,6.4c-4-0.4-7.8-0.5-11.7,0.3
			c-5.1,1.1-7.7-0.4-10.2-4.9c-2.8-5-5.7-9.9-8.8-14.7c-2.8-4.3-6-8.4-8.8-12.8c-0.9-1.5-1-3.4-1.6-5.7c4,1.1,7.2,1.8,8.5,5.8
			c3.1-8,7-15.5,6.8-23.9c-0.2-8.5,2.3-15.7,7.7-22.2c1.9-2.3,3.4-4.9,5.4-7c4.9-5.1,5.6-11,4.6-17.7c-0.5-3.2-1.8-4.8-4.6-5.6
			c-3.5-1.1-6.4-2.9-8.7-6c-2-2.7-5.1-4.2-8.5-4.7c-12.6-2-24.2,6-27,18.6c-2.3,10.4,6.8,18.8,17,15.6c3.2-1,6.3-2.4,10-3.8
			c0,1.5,0.4,3.1-0.1,4.4c-0.8,2.4-2.6,4.6-3,7c-1.4,7.6-5.9,12.7-12,16.8c-6.3,4.2-12.3,8.8-18.5,13.2
			c-15.4,10.9-24.9,25.7-28.9,44.1c-2.3,10.8-4.4,21.7-6.6,32.5c-0.2,1.2,0,2.5,0.1,3.8C100.9,396.3,102,397.2,103.8,397.4z"/>
		<path class="st1" d="M251.4,454.2c1.2,0.6,1.9,1,2.7,1.4c0.7-1.1,1.3-2,1.9-2.9c-0.2-0.2-0.5-0.5-0.7-0.7
			C254.1,452.6,252.9,453.3,251.4,454.2z"/>
		<path class="st1" d="M206.7,401c0.7-0.6,0.9-2.4,0.7-3.6c-0.5-2.7-1.1-5.4-2-8c-1.6-5-3.4-10.1-5.3-15c-0.5-1.2-1.6-2.3-2.7-2.9
			c-2.6-1.6-5.5-1.5-8.2-0.3c-2.4,1.1-4.8,2.4-7,3.8c-11.6,7.5-23.2,15.1-34.7,22.7c-0.7,0.5-1.3,1.1-2.6,2.2c1.7,0,2.6,0.1,3.4,0
			c10.1-1.5,20.2-1.5,30.3,0.5c5.3,1,10.8,1.3,16.2,2c1.9,0.2,3.1-0.5,4-2.2c1.3-2.4,3.5-3.7,6.5-4.2c-0.7,1.5-1.3,3.1-2.1,5
			C204.2,401,205.9,401.6,206.7,401z"/>
		<path class="st1" d="M191.8,410.8c1.1,0.1,2.3,0.4,3.4,0.3c11.9-0.7,23.8-1.4,35.6-2.2c1.1-0.1,2.1-0.6,3.2-0.9
			c-0.1-0.4-0.1-0.7-0.2-1.1c-14,1-28,2-42,3C191.8,410.2,191.8,410.5,191.8,410.8z"/>
		<path class="st1" d="M290.8,161.4c2.8-0.1,3.9,1,3.3,3.8c-0.1,0.7-0.4,1.4-0.7,2.1c-2.3,7.3-4.7,14.6-7,21.9
			c-0.2,0.7-0.3,1.4-0.5,2.1c1.1-0.5,1.8-1.1,2.3-1.8c2.8-4,5.4-8.2,8.4-12c2.2-2.8,4.9-5.1,7.6-7.9c3.5,4,6.4,7.3,9.4,10.6
			c0-2.2-0.6-4.1-0.8-6.1c-0.2-2-0.1-4,0.2-5.9c0.2-1.5,1.3-2,2.9-1.7c3.3,0.5,6.6,0.9,9.9,1.4c2.8,0.4,5.5,0.7,8.3,1
			c0-0.4,0.1-0.8,0.1-1.2c-1.2,0-2.4,0-4.2,0c1-0.8,1.5-1.2,2.2-1.9c-5.5-3.3-10.7-6.5-16.1-9.8c3-2.3,5.1-5.6,8.5-5
			c1.4-3.1,2.6-5.8,3.9-8.7c-1.6,0.9-3.2,1.7-4.7,2.6c-2.1,1.4-4,1.1-5.9-0.2c-1.9-1.3-4.8-1.7-4.2-5.2c0.4-2.4,0.1-4.8,0.1-7.3
			c-0.3,0-0.7-0.1-1-0.1c-0.6,3.9-1.2,7.8-1.8,11.7c-0.3,1.5-0.7,3.1-1.1,4.6c-1.7-0.5-3.5-0.7-5-1.6c-1.4-0.8-2.6-2.1-3.7-3.3
			c-4-3.9-8-7.9-12.1-11.8c-0.7-0.7-1.6-1.1-2.7-1.8c-0.9,6.5-0.4,12.2,2.8,17.4c0.3,0.5,0.6,1.2,0.8,1.7c1.3,2.9,0.8,4.5-2,5.8
			c-3.4,1.7-6.8,3.2-10.2,4.9c-0.8,0.4-1.5,0.8-2.2,1.2c0.8,0.6,1.5,0.8,2.2,0.8C282.1,161.7,286.5,161.6,290.8,161.4z"/>
		<path class="st1" d="M288.9,442.5c3,1,5.9,3,9.6,1.2C295.3,441.1,292.1,441.8,288.9,442.5z"/>
		<path class="st1" d="M486.6,73.7c-1.1,0.9-2.2,1.9-3.5,2.4c-15.7,6.2-30.6,14.2-45.7,21.6c-16.4,8-30.2,19.9-45.9,28.8
			c-14,8-26.9,17.5-39.7,27.2c-3.5,2.6-4,2.6-8.2,2.5c1.3-1.6,2.1-2.9,3.2-3.7c29.6-19.6,58.9-39.8,89.1-58.5
			c14.3-8.9,30.1-15.1,45.4-22.4c0.8-0.4,1.7-0.4,2.7-0.3c-5.1-4.4-10.3-8.6-15.6-12.6c-2.8,1.7-5.9,2.9-8.9,4.2
			c-31.4,13.9-60.1,32.7-89,51c-2.3,1.5-4.7,3-7,4.4c-0.9,0.5-2,0.9-2.9,1.3c-0.3-0.3-0.6-0.6-0.9-0.9c0.9-1.2,1.5-2.8,2.6-3.6
			c7-5.1,14.1-10.2,21.2-15.1c1-0.7,2.6-0.7,4-1c0.2,0.3,0.3,0.6,0.5,0.8c0.2-0.8,0.5-1.6,0.8-2.8c0.5,0.7,0.7,1.1,1,1.5
			C402.4,86.7,418.5,80.2,433,71c0.6,0.5,1,0.9,1.5,1.3c0.1,0.1,0.3-0.1,0.1-0.6c0.7-0.9,1.3-2.1,2.2-2.7c2.8-1.8,5.7-3.4,8.6-5.1
			c2-1.1,3.9-2.3,5.4-1c4.2-3.4,8.6-5.8,13.3-7.2c-2.2-1.6-4.4-3.2-6.7-4.7c-8.9,3.9-17.9,7.8-26.9,11.7c-0.9,0.4-2.1-0.1-3.2,0
			c-0.7,0.1-1.3,0.4-2,0.6c0.9,2-1.1,2.2-1.9,2.8c-5.3,3.2-10.4,6.7-16,9.3c-25.7,12.2-48.8,28.7-71.7,45.3c-1.3,1-2.9,1.6-4.5,2.5
			c-0.9-2.7-0.1-4.1,1.7-5.5c21.4-16.5,43.8-31.6,68-43.9c14.8-7.6,29.2-16.1,44-23.7c2.1-1.1,4.3-2.1,6.6-3
			C405.8,17.3,351.2,0,292.5,0C131,0,0,131,0,292.5S131,585,292.5,585S585,454,585,292.5C585,205.4,546.9,127.3,486.6,73.7z
			 M267.1,162.2c1.3-0.2,2.4-2.1,3.7-2.2c5-0.5,6.7-5.3,10.5-7.3c2-1.1,2.5-2.8,2.3-5.1c-0.7-8.2-3.4-15.8-6.6-23.3
			c-0.8-1.9-1-4.2-0.8-6.3c0.1-1.7,1.6-2.5,3.3-1.6c1.1,0.6,2.3,1.2,3.2,2.1c6.4,6.3,12.7,12.6,19,19c0.5,0.5,1,1.1,1.6,1.6
			c2.4,2,3.8,2,4.7-1c1.3-4.4,2.1-8.9,3-13.5c0.7-3.6,1-7.3,1.9-10.9c0.7-2.7,2.1-5.1,3.4-8.2c3,3.4,5.1,6,4.9,10
			c-0.5,6.6-0.6,13.3-0.8,19.9c0,0.9,0.4,2.6,0.8,2.7c1.7,0.4,3.8,1,5.1,0.2c7.7-4.3,15-9.2,23.5-12c1.6-0.5,3.1-0.9,4.1,0.9
			c1,1.8,0.2,3-1.3,4.2c-7.6,6.2-15.2,12.4-22.7,18.6c-1.5,1.3-2.8,2.9-4.3,4.4c2.4,3.1,5.2,5.7,9.1,7.1c5.7,2,11.2,4.2,16.8,6.3
			c0.8,0.3,1.8,0.4,2.3,1c1,1.3,1.8,2.8,2.7,4.2c-1.3,0.6-2.7,1.8-3.9,1.6c-8.4-1-16.9-2-25.2-3.4c-7.7-1.3-9.9,0.4-8.2,8
			c1.6,7,4,13.8,6,20.7c0.4,1.2,0.6,2.5,1,3.7c-4.5,2.2-5.4,2-8.3-1.7c-3.5-4.4-6.1-9.2-7.5-14.7c-1.1-4.3-2.8-8.2-7.5-10.7
			c-1.6,2.1-3.6,4.2-5,6.7c-4,7.2-7.8,14.5-11.7,21.7c-2.8,5.2-3.1,5.4-9.7,4.2c0.5-2.5,0.7-4.9,1.5-7.1c2.8-8.2,5.7-16.4,8.7-24.5
			c1.2-3.3,1.7-6.6,0.6-10.4c-1.4,0.1-3,0.1-4.4,0.4c-5.2,1-10.5,2.2-15.7,3.3c-4.7,1-5.4,0.8-9.7-2.1
			C260.3,165.6,263,162.9,267.1,162.2z M520.9,356.5c-5.4,8.3-10.7,16.6-16.2,24.8c-13.1,19.7-27.6,38.4-42.8,56.5
			c-3.8,4.5-8.1,8.6-12.1,13c-1.3,1.5-2.9,2.3-4.6,1c-7-5.2-14.9-4-22.7-3c-10.2,1.3-19.8,5.2-29.3,8.9c-1.2,0.5-2.8,1-4,0.6
			c-2.5-0.7-4.7-1.3-7.2,0.3c-0.7,0.5-3.1-0.7-4.1-1.7c-6.4-6.8-14-10.3-23.4-9.9c-13.3,0.6-26.1,3.4-38.3,9c-1,0.5-2.1,0.8-3.1,1.1
			c-3.4,0.9-6.3,1.7-8.9-2.4c-2.4-3.9-7.1-4.7-11.5-4.1c-11,1.5-21.9,3-32.7,5.3c-7.3,1.6-14.4,4.4-21.6,6.8
			c-4.3,1.5-7.8-1.1-11.7-1.9c-0.3-0.1-0.8-0.7-0.8-1c0.4-3.1-2.2-3.4-4-4.3c-0.5-0.3-1-0.4-1.4-0.8c-6.4-5.8-14.2-5.1-21.7-4.3
			c-14.3,1.4-28.2,4.4-41.9,8.7c-4,1.2-8.5,0.9-12.8,0.9c-0.9,0-2.4-1.7-2.5-2.7c-1-9.3-10.4-13.9-19.6-10.7
			c-3.5,1.2-6.8,2.8-10.3,4c-4.4,1.5-9,2.7-13.4,4.2c-2,0.7-4,1.5-5.8,2.5c-6.9,3.7-9.2,3.7-14.1-2.3c-9.7-11.9-19.2-24.1-28.6-36.3
			c-2.9-3.7-5.6-7.6-7.9-11.7c-2.9-5-0.8-8.9,5-9.5c6.9-0.7,13.8-1.3,20.7-1.6c7.2-0.3,14.4-0.3,21.6-0.3c2.4,0,3.3-0.9,3.6-3.2
			c1.6-10.6,3.1-21.2,5.2-31.7c0.9-4.6,2.9-9.2,5-13.4c3.9-7.5,8.3-14.8,12.5-22.1c5.9-10.3,13.8-18.9,23.3-26
			c2-1.5,4.3-2.5,6.6-3.5c2.8-1.2,5.6-2.1,7.6-4.8c0.7-1,2.3-1.4,3.9-2.3c-0.8-1.2-1.5-2.7-2.6-3.6c-2.9-2.5-5.8-4.9-9.7-6.2
			c-2.2-0.7-4.3-3.6-5.2-6c-3.6-9.3,0.8-24.3,8.6-30.3c7.1-5.4,15.3-6.6,23.9-4.8c1.4,0.3,2.7,0.6,4,1c2.4,0.6,4.4,1.2,6.3,3.6
			c1.9,2.3,5.4,3.9,8.5,4.6c5.3,1.2,6.5,2.5,6.4,8c0,3.1,0.7,6.2,1.5,9.2c1.5,5.2,0.8,8.3-3.5,11.4c-9.5,6.9-13.8,16.8-15.3,27.8
			c-1,7.6-0.6,15.3-1,22.9c-0.2,3.7-1.1,7.4-1.5,11.2c-0.2,1.6-0.3,3.4,0.3,4.8c2.9,6.6,10.3,10.6,17.4,9.4c2.7-0.5,5.3-0.8,7.7,0.8
			c0.4,0.3,1.1,0.4,1.6,0.4c8.8-0.5,17.6-0.5,25.1-6.1c3.4-2.5,7.1-3.6,11.4-2.5c3.1,0.8,6.1-0.4,8.9-2.2
			c14.3-9.4,28.7-18.6,42.9-28c13.1-8.6,27.5-14.6,41.5-21.6c30.9-15.6,62.8-28.6,95.8-38.9c21.7-6.8,43.9-12.1,65.9-18
			c2.5-0.7,5.1-0.7,7.8-0.5c-1.5,0.6-3,1.3-4.5,1.7c-33.3,8.9-65.1,22.1-97.3,34.2c-13.3,5-27,9.2-39.7,15.2
			c-29.1,13.8-57.3,29.4-84.2,47.3c-7.6,5-15.6,9.6-23.5,14.1c-4.5,2.6-7.5,6.1-8.9,11.1c-2.3,8-5.4,9.9-13.5,10.2
			c-2.7,0.1-5.6,1.5-8.1,2.9c-2.9,1.6-5.4,3.9-8.1,5.8c-3,2.2-3.8,4.5-2.3,7.9c1.7,3.8,3.5,7.5,5.2,11.3c1.5,3.4,4.1,4.8,7.7,4.7
			c13.6-0.4,27.2-0.3,40.7-1.3c16.4-1.1,32.8-2.6,49-4.8c15.8-2.2,31.4-5.5,47.2-8.2c19.6-3.4,39.2-6.3,58.7-9.9
			c27.5-5.1,54.8-10.9,80.9-21.4c3.7-1.5,7.7-2.6,11.6-3.8c1.3-0.4,2.7-0.7,4.1-0.6c1.4,0.1,2.7,0.7,4.1,1.1
			C522,354.1,521.6,355.4,520.9,356.5z M543.5,227.2c-4.6,1-9.2,1.7-13.8,2.8c-1.9,0.4-3.8,1.4-5.7,2.2c-0.7-1.3,0-3,2.3-3.5
			c4.2-0.9,8.2-2.5,12.7-1.9c1.6,0.2,3.3-0.9,5-1.3c0.7-0.2,1.4-0.2,2.1-0.2c0.1,0.3,0.1,0.6,0.2,0.9
			C545.4,226.4,544.5,227,543.5,227.2z M551,226.3c-0.6,0.2-1.3,0.1-1.9-0.1c-0.2,0-0.4-0.9-0.2-1.1c0.4-0.5,1.1-1.1,1.6-1.1
			c1,0,1.9,0.3,3.5,0.7C552.6,225.5,551.8,226,551,226.3z M563.8,224.6c-2.2,0.3-4.4,0.5-7.2,0.9
			C559.7,222.7,560.1,222.6,563.8,224.6z"/>
		<path class="st1" d="M506.3,362.1c-12.1,4.3-24.3,8.8-36.5,13c-6.2,2.1-12.8,3.1-18.7,5.9c-9.4,4.4-19.2,7.1-29.3,8.6
			c-13.6,2.1-27.3,3.6-40.9,5.6c-11.7,1.6-23.3,3.7-35,5.1c-8.1,1-16.2,1.1-24.3,1.7c-1.7,0.1-3.3,0.8-5,1.2c-1.5,0.4-3.1,0.9-4.6,1
			c-2.4,0.2-5.1-0.7-7.1,0.2c-4.5,1.9-9.1,2.3-13.8,2.7c-18.6,1.6-37.1,3.3-55.7,4.7c-16.7,1.2-33.3,2.2-50,3
			c-13.3,0.7-26.6,1-39.9,1.3c-2.3,0.1-4.6-0.2-6.9-0.4c0-0.3-0.1-0.6-0.1-0.9c1.1-0.3,2.2-0.7,3.3-0.8c7.7-0.5,15.5-0.8,23.2-1.2
			c3.2-0.2,6.3-0.5,9.5-0.7c-0.6-0.9-1.2-1.3-1.7-1.3c-4.5-0.4-9-1-13.5-1c-20-0.2-40.1-0.3-60.1-0.4c-4.7,0-9.4-0.2-14.1-0.6
			c-10.8-1-21.7-2.3-32.5-3.4c-0.8-0.1-1.7,0.1-3.1,0.3c2,2.3,3.9,3.9,5,5.9c8.5,14.7,21.4,25.9,31.1,39.6c0.5,0.6,2,1.3,2.5,1
			c4.3-2.1,9.5-2.6,12.8-6.6c0.7-0.9,2.3-1,3.4-1.5c2.3-1,4.7-2,7-2.9c0.9-0.3,1.8-0.5,2.8-0.7c1.4-0.2,2.9-0.1,4.2-0.4
			c1.8-0.4,3.4-1.4,5.2-1.4c4.4-0.2,8.9-0.2,13.3,0c9.5,0.4,12.5,3.3,13.5,12.8c0.3,2.5,1.1,3,3.5,2c5.9-2.4,11.7-5.1,17.6-7.4
			c6.2-2.4,12.3-5.2,18.7-6.5c9.1-1.9,18.4-2.7,27.6-4.1c6.9-1,9.7,0.7,11.3,7.6c1,4.1,1.5,8.3,2.4,12.8c1.3-0.4,2.5-0.7,3.7-1.1
			c10.2-4,20.4-8,30.6-12.1c8.8-3.5,18-4.7,27.4-4.1c5.2,0.3,10,1.6,11.9,7.6c1,3.1,3.2,3.5,6.5,2.1c2.9-1.3,5.9-2.6,8.9-3.6
			c6.2-2,12.5-3.9,18.8-5.7c1.9-0.5,4-0.9,6-0.8c9.6,0.9,19.4,1.1,27.8,7c2.3,1.6,5.5,1.9,7.7,3.6c2.8,2,5.2,1.8,8.2,0.6
			c3.9-1.6,8-2.7,12.1-3.7c3.9-0.9,8-1.5,12-2c8.9-1.1,17.7-3.2,26.6-0.1c3.8,1.3,6.4,0.1,9.1-2.9c21.6-24.5,41.9-49.9,60-77.1
			c0.5-0.7,0.9-1.5,1.4-2.2c-0.1-0.2-0.3-0.4-0.4-0.5C508.6,361.3,507.4,361.7,506.3,362.1z"/>
	</g>
</g>
<g id="Calque_3">
</g>
</svg>
